<?xml version="1.0" encoding="utf-8"?>
<!-- Generator: Adobe Illustrator 17.0.0, SVG Export Plug-In . SVG Version: 6.00 Build 0)  -->
<!DOCTYPE svg PUBLIC "-//W3C//DTD SVG 1.1//EN" "http://www.w3.org/Graphics/SVG/1.1/DTD/svg11.dtd">
<svg version="1.1" id="Capa_1" xmlns="http://www.w3.org/2000/svg" xmlns:xlink="http://www.w3.org/1999/xlink" x="0px" y="0px"
	 width="256.977px" height="330.233px" viewBox="0 0 256.977 330.233" enable-background="new 0 0 256.977 330.233"
	 xml:space="preserve">
<g>
	<g>
		<path fill="#FFFFFF" d="M54.85,324.141c0,0.057-0.013,0.105-0.038,0.144c-0.024,0.039-0.069,0.073-0.133,0.101
			s-0.147,0.05-0.249,0.064c-0.103,0.014-0.229,0.021-0.377,0.021c-0.163,0-0.296-0.007-0.399-0.021
			c-0.103-0.014-0.185-0.036-0.245-0.064c-0.061-0.028-0.101-0.062-0.122-0.101c-0.021-0.039-0.032-0.087-0.032-0.144v-1.264
			c-0.546,0.602-1.084,1.042-1.616,1.318c-0.532,0.276-1.07,0.414-1.616,0.414c-0.638,0-1.175-0.107-1.611-0.319
			c-0.436-0.212-0.788-0.501-1.058-0.867c-0.269-0.365-0.462-0.79-0.579-1.275c-0.117-0.485-0.175-1.075-0.175-1.769v-5.803
			c0-0.057,0.013-0.104,0.037-0.144c0.025-0.039,0.073-0.074,0.144-0.107c0.071-0.032,0.163-0.053,0.276-0.063
			c0.114-0.011,0.255-0.017,0.425-0.017c0.17,0,0.312,0.006,0.425,0.017c0.113,0.01,0.204,0.032,0.271,0.063
			c0.067,0.032,0.115,0.068,0.144,0.107c0.028,0.039,0.043,0.087,0.043,0.144v5.57c0,0.56,0.04,1.008,0.122,1.344
			c0.081,0.337,0.205,0.624,0.372,0.861c0.167,0.238,0.377,0.421,0.632,0.552c0.255,0.132,0.552,0.197,0.893,0.197
			c0.44,0,0.877-0.156,1.313-0.468c0.436-0.312,0.898-0.769,1.387-1.371v-6.685c0-0.057,0.013-0.104,0.037-0.144
			c0.025-0.039,0.073-0.074,0.144-0.107c0.071-0.032,0.161-0.053,0.271-0.063c0.11-0.011,0.253-0.017,0.431-0.017
			c0.17,0,0.312,0.006,0.425,0.017c0.114,0.01,0.202,0.032,0.266,0.063c0.064,0.032,0.112,0.068,0.144,0.107
			c0.032,0.039,0.048,0.087,0.048,0.144V324.141z"/>
	</g>
	<g>
		<path fill="#FFFFFF" d="M68.036,315.203c0,0.155-0.003,0.286-0.01,0.393c-0.007,0.106-0.021,0.189-0.043,0.249
			c-0.021,0.061-0.048,0.107-0.08,0.138c-0.032,0.032-0.077,0.048-0.133,0.048s-0.125-0.016-0.207-0.048
			c-0.081-0.032-0.174-0.063-0.276-0.095c-0.103-0.032-0.218-0.062-0.346-0.09s-0.266-0.043-0.414-0.043
			c-0.178,0-0.351,0.036-0.521,0.106c-0.17,0.071-0.349,0.188-0.537,0.351c-0.188,0.163-0.384,0.379-0.59,0.648
			c-0.205,0.27-0.432,0.599-0.68,0.989v6.292c0,0.057-0.015,0.105-0.043,0.144c-0.028,0.039-0.075,0.073-0.138,0.101
			c-0.064,0.028-0.153,0.05-0.266,0.064c-0.114,0.014-0.259,0.021-0.436,0.021c-0.17,0-0.312-0.007-0.425-0.021
			c-0.114-0.014-0.204-0.036-0.271-0.064c-0.068-0.028-0.114-0.062-0.138-0.101c-0.025-0.039-0.038-0.087-0.038-0.144v-9.565
			c0-0.057,0.011-0.104,0.032-0.144c0.021-0.039,0.064-0.074,0.127-0.107c0.064-0.032,0.145-0.053,0.245-0.063
			c0.099-0.011,0.23-0.017,0.393-0.017c0.156,0,0.286,0.006,0.388,0.017c0.103,0.01,0.182,0.032,0.239,0.063
			c0.057,0.032,0.097,0.068,0.122,0.107c0.024,0.039,0.037,0.087,0.037,0.144v1.392c0.262-0.383,0.508-0.695,0.739-0.935
			c0.23-0.241,0.448-0.43,0.653-0.568c0.206-0.139,0.41-0.234,0.612-0.287c0.201-0.053,0.405-0.08,0.611-0.08
			c0.092,0,0.197,0.006,0.313,0.016c0.117,0.011,0.239,0.03,0.367,0.058c0.127,0.028,0.242,0.061,0.346,0.095
			c0.103,0.036,0.175,0.071,0.218,0.107c0.042,0.035,0.07,0.069,0.084,0.101c0.014,0.032,0.027,0.073,0.037,0.122
			c0.011,0.05,0.018,0.122,0.021,0.218C68.034,314.911,68.036,315.04,68.036,315.203z"/>
	</g>
	<g>
		<path fill="#FFFFFF" d="M83.187,319.232c0,0.829-0.09,1.574-0.271,2.237c-0.181,0.663-0.447,1.228-0.797,1.695
			c-0.351,0.468-0.781,0.826-1.292,1.074c-0.51,0.248-1.095,0.372-1.754,0.372c-0.305,0-0.586-0.03-0.844-0.091
			c-0.259-0.06-0.512-0.157-0.76-0.292c-0.248-0.134-0.496-0.305-0.744-0.51c-0.248-0.206-0.51-0.454-0.786-0.744v1.169
			c0,0.057-0.014,0.107-0.043,0.149c-0.028,0.043-0.074,0.076-0.138,0.101c-0.064,0.024-0.144,0.044-0.239,0.058
			c-0.096,0.014-0.218,0.021-0.367,0.021c-0.142,0-0.262-0.007-0.361-0.021c-0.099-0.014-0.181-0.034-0.245-0.058
			c-0.063-0.025-0.106-0.058-0.127-0.101c-0.021-0.043-0.032-0.092-0.032-0.149v-14.2c0-0.056,0.013-0.106,0.038-0.148
			c0.024-0.043,0.07-0.078,0.138-0.107c0.067-0.028,0.157-0.05,0.271-0.064c0.114-0.014,0.255-0.021,0.425-0.021
			c0.177,0,0.322,0.007,0.436,0.021c0.113,0.014,0.202,0.036,0.266,0.064c0.063,0.028,0.11,0.064,0.138,0.107
			c0.028,0.043,0.043,0.092,0.043,0.148v5.729c0.283-0.29,0.558-0.535,0.823-0.733c0.266-0.198,0.526-0.36,0.781-0.484
			c0.255-0.124,0.51-0.214,0.766-0.271c0.255-0.057,0.524-0.085,0.807-0.085c0.695,0,1.288,0.138,1.78,0.414
			c0.492,0.276,0.893,0.647,1.201,1.11c0.308,0.465,0.533,1.009,0.675,1.632C83.116,317.878,83.187,318.537,83.187,319.232z
			 M81.37,319.433c0-0.489-0.037-0.963-0.112-1.424s-0.205-0.868-0.391-1.223c-0.185-0.354-0.431-0.639-0.738-0.855
			c-0.306-0.216-0.687-0.324-1.144-0.324c-0.228,0-0.453,0.032-0.674,0.095c-0.221,0.064-0.445,0.17-0.674,0.319
			c-0.228,0.149-0.465,0.34-0.711,0.575c-0.245,0.234-0.507,0.528-0.785,0.882v3.816c0.485,0.588,0.948,1.036,1.39,1.345
			c0.442,0.308,0.902,0.462,1.38,0.462c0.442,0,0.82-0.107,1.133-0.319c0.314-0.213,0.569-0.495,0.765-0.845
			c0.196-0.351,0.339-0.744,0.428-1.18C81.325,320.321,81.37,319.88,81.37,319.433z"/>
	</g>
	<g>
		<path fill="#FFFFFF" d="M97.383,324.152c0,0.085-0.028,0.148-0.085,0.191c-0.057,0.043-0.134,0.074-0.234,0.095
			s-0.245,0.032-0.436,0.032c-0.185,0-0.331-0.011-0.441-0.032c-0.11-0.021-0.189-0.053-0.239-0.095
			c-0.05-0.043-0.074-0.106-0.074-0.191v-0.957c-0.418,0.446-0.884,0.793-1.398,1.042c-0.514,0.248-1.058,0.372-1.631,0.372
			c-0.504,0-0.959-0.065-1.366-0.197c-0.407-0.131-0.754-0.32-1.042-0.569c-0.286-0.248-0.51-0.552-0.669-0.914
			c-0.159-0.361-0.239-0.772-0.239-1.233c0-0.538,0.11-1.006,0.329-1.403c0.22-0.396,0.535-0.726,0.946-0.988
			c0.411-0.262,0.914-0.459,1.509-0.59c0.595-0.131,1.265-0.197,2.009-0.197h1.318v-0.743c0-0.369-0.039-0.695-0.118-0.978
			s-0.204-0.519-0.377-0.707s-0.399-0.329-0.675-0.425c-0.276-0.095-0.616-0.143-1.02-0.143c-0.432,0-0.82,0.051-1.163,0.154
			c-0.344,0.103-0.645,0.216-0.904,0.34c-0.259,0.124-0.475,0.238-0.649,0.34c-0.174,0.103-0.302,0.154-0.388,0.154
			c-0.057,0-0.107-0.014-0.149-0.043c-0.042-0.028-0.08-0.071-0.111-0.127c-0.032-0.057-0.055-0.129-0.069-0.219
			c-0.014-0.088-0.021-0.185-0.021-0.292c0-0.177,0.012-0.317,0.037-0.42c0.024-0.103,0.084-0.2,0.181-0.292
			c0.095-0.092,0.26-0.2,0.494-0.324c0.234-0.124,0.503-0.238,0.807-0.34c0.305-0.103,0.638-0.188,0.999-0.255
			c0.361-0.067,0.726-0.101,1.095-0.101c0.687,0,1.272,0.078,1.754,0.234c0.482,0.156,0.872,0.384,1.17,0.686
			c0.298,0.301,0.514,0.675,0.648,1.121c0.135,0.446,0.202,0.967,0.202,1.562V324.152z M95.64,319.784h-1.499
			c-0.482,0-0.9,0.041-1.254,0.122c-0.354,0.081-0.649,0.202-0.882,0.361s-0.406,0.35-0.515,0.574
			c-0.11,0.223-0.165,0.48-0.165,0.77c0,0.496,0.158,0.891,0.473,1.185c0.316,0.294,0.756,0.441,1.324,0.441
			c0.46,0,0.887-0.118,1.281-0.351c0.393-0.234,0.806-0.591,1.238-1.073V319.784z"/>
	</g>
	<g>
		<path fill="#FFFFFF" d="M113.193,324.141c0,0.057-0.014,0.105-0.042,0.144c-0.028,0.039-0.075,0.073-0.139,0.101
			c-0.063,0.028-0.152,0.05-0.265,0.064c-0.114,0.014-0.255,0.021-0.425,0.021c-0.177,0-0.323-0.007-0.436-0.021
			c-0.114-0.014-0.202-0.036-0.266-0.064c-0.063-0.028-0.11-0.062-0.138-0.101c-0.028-0.039-0.043-0.087-0.043-0.144v-5.601
			c0-0.545-0.043-0.985-0.127-1.318c-0.085-0.333-0.209-0.62-0.373-0.861c-0.163-0.241-0.373-0.425-0.632-0.552
			c-0.259-0.127-0.558-0.191-0.898-0.191c-0.44,0-0.878,0.155-1.318,0.467c-0.44,0.312-0.9,0.769-1.381,1.372v6.685
			c0,0.057-0.015,0.105-0.043,0.144c-0.028,0.039-0.075,0.073-0.138,0.101c-0.064,0.028-0.153,0.05-0.266,0.064
			c-0.114,0.014-0.259,0.021-0.436,0.021c-0.17,0-0.312-0.007-0.425-0.021c-0.114-0.014-0.204-0.036-0.271-0.064
			c-0.068-0.028-0.114-0.062-0.138-0.101c-0.025-0.039-0.038-0.087-0.038-0.144v-9.565c0-0.057,0.011-0.104,0.032-0.144
			c0.021-0.039,0.064-0.074,0.127-0.107c0.064-0.032,0.145-0.053,0.245-0.063c0.099-0.011,0.23-0.017,0.393-0.017
			c0.156,0,0.286,0.006,0.388,0.017c0.103,0.01,0.182,0.032,0.239,0.063c0.057,0.032,0.097,0.068,0.122,0.107
			c0.024,0.039,0.037,0.087,0.037,0.144v1.265c0.538-0.602,1.075-1.043,1.61-1.324c0.535-0.28,1.076-0.42,1.621-0.42
			c0.638,0,1.174,0.108,1.61,0.324c0.436,0.216,0.788,0.504,1.058,0.866c0.269,0.361,0.462,0.785,0.579,1.271
			c0.117,0.485,0.175,1.068,0.175,1.748V324.141z"/>
	</g>
	<g>
		<path fill="#FFFFFF" d="M136.897,322.685c0,0.121-0.004,0.225-0.011,0.314c-0.007,0.088-0.02,0.163-0.037,0.223
			c-0.017,0.061-0.039,0.114-0.064,0.159c-0.024,0.047-0.081,0.114-0.17,0.202c-0.089,0.089-0.239,0.199-0.452,0.33
			c-0.212,0.131-0.451,0.248-0.717,0.35c-0.265,0.103-0.554,0.186-0.866,0.25c-0.312,0.063-0.635,0.095-0.968,0.095
			c-0.687,0-1.297-0.114-1.828-0.34s-0.976-0.558-1.334-0.994c-0.358-0.436-0.631-0.971-0.818-1.605
			c-0.188-0.634-0.282-1.365-0.282-2.195c0-0.942,0.115-1.751,0.346-2.428c0.23-0.676,0.545-1.231,0.945-1.664
			c0.4-0.432,0.872-0.752,1.413-0.961c0.542-0.209,1.129-0.314,1.759-0.314c0.305,0,0.601,0.028,0.888,0.085
			c0.286,0.057,0.551,0.131,0.792,0.223s0.455,0.198,0.643,0.319s0.324,0.223,0.409,0.309c0.085,0.084,0.144,0.152,0.175,0.201
			c0.032,0.05,0.059,0.108,0.08,0.176c0.021,0.067,0.036,0.143,0.043,0.228c0.007,0.085,0.011,0.192,0.011,0.319
			c0,0.276-0.032,0.47-0.095,0.579c-0.064,0.11-0.142,0.165-0.234,0.165c-0.106,0-0.228-0.058-0.366-0.175
			c-0.138-0.117-0.314-0.246-0.526-0.388c-0.212-0.141-0.47-0.271-0.77-0.388c-0.301-0.118-0.657-0.176-1.069-0.176
			c-0.843,0-1.489,0.324-1.939,0.973c-0.451,0.648-0.676,1.589-0.676,2.821c0,0.616,0.058,1.157,0.176,1.621
			c0.117,0.464,0.288,0.852,0.515,1.163c0.227,0.313,0.504,0.545,0.834,0.697c0.329,0.152,0.706,0.228,1.132,0.228
			c0.404,0,0.758-0.064,1.063-0.191c0.305-0.128,0.568-0.268,0.792-0.42s0.411-0.29,0.564-0.414
			c0.152-0.124,0.271-0.186,0.356-0.186c0.05,0,0.092,0.014,0.128,0.043c0.035,0.028,0.066,0.076,0.09,0.144
			c0.024,0.067,0.043,0.152,0.053,0.255C136.892,322.422,136.897,322.544,136.897,322.685z"/>
	</g>
	<g>
		<path fill="#FFFFFF" d="M145.333,324.141c0,0.057-0.015,0.105-0.043,0.144c-0.028,0.039-0.075,0.073-0.138,0.101
			c-0.064,0.028-0.153,0.05-0.266,0.064c-0.114,0.014-0.259,0.021-0.436,0.021c-0.17,0-0.312-0.007-0.425-0.021
			c-0.114-0.014-0.204-0.036-0.271-0.064c-0.068-0.028-0.114-0.062-0.138-0.101c-0.025-0.039-0.038-0.087-0.038-0.144v-14.2
			c0-0.056,0.013-0.106,0.038-0.148c0.024-0.043,0.07-0.078,0.138-0.107c0.067-0.028,0.157-0.05,0.271-0.064
			c0.114-0.014,0.255-0.021,0.425-0.021c0.177,0,0.322,0.007,0.436,0.021c0.113,0.014,0.202,0.036,0.266,0.064
			c0.063,0.028,0.11,0.064,0.138,0.107c0.028,0.043,0.043,0.092,0.043,0.148V324.141z"/>
	</g>
	<g>
		<path fill="#FFFFFF" d="M161.823,319.252c0,0.78-0.103,1.497-0.308,2.153c-0.206,0.655-0.512,1.22-0.919,1.695
			c-0.407,0.474-0.918,0.844-1.53,1.11c-0.613,0.266-1.324,0.399-2.131,0.399c-0.787,0-1.473-0.117-2.057-0.351
			c-0.585-0.234-1.072-0.574-1.462-1.02c-0.39-0.447-0.68-0.989-0.871-1.627c-0.192-0.638-0.287-1.361-0.287-2.168
			c0-0.78,0.101-1.497,0.303-2.152c0.202-0.656,0.507-1.221,0.914-1.695c0.407-0.475,0.915-0.844,1.526-1.106
			c0.609-0.262,1.321-0.393,2.136-0.393c0.787,0,1.473,0.117,2.057,0.35c0.585,0.234,1.072,0.575,1.462,1.02
			c0.39,0.447,0.682,0.989,0.877,1.627C161.725,317.733,161.823,318.452,161.823,319.252z M160.006,319.37
			c0-0.518-0.049-1.006-0.145-1.467c-0.096-0.46-0.256-0.864-0.477-1.211s-0.522-0.622-0.9-0.824
			c-0.379-0.202-0.851-0.303-1.416-0.303c-0.522,0-0.971,0.092-1.346,0.277c-0.376,0.184-0.685,0.444-0.928,0.781
			c-0.243,0.337-0.424,0.736-0.541,1.196c-0.118,0.461-0.177,0.964-0.177,1.51c0,0.524,0.048,1.017,0.144,1.477
			c0.097,0.46,0.258,0.863,0.483,1.206c0.225,0.344,0.527,0.616,0.906,0.818c0.379,0.202,0.851,0.303,1.416,0.303
			c0.515,0,0.961-0.092,1.34-0.276c0.38-0.185,0.69-0.443,0.933-0.776c0.244-0.333,0.422-0.73,0.537-1.191
			C159.948,320.429,160.006,319.922,160.006,319.37z"/>
	</g>
	<g>
		<path fill="#FFFFFF" d="M173.733,323.44c0,0.206-0.014,0.369-0.043,0.489s-0.071,0.209-0.127,0.266
			c-0.057,0.057-0.142,0.11-0.256,0.159c-0.113,0.05-0.242,0.09-0.388,0.122c-0.145,0.032-0.3,0.058-0.462,0.08
			c-0.163,0.021-0.326,0.032-0.489,0.032c-0.496,0-0.922-0.066-1.276-0.197c-0.354-0.131-0.645-0.33-0.871-0.595
			c-0.227-0.266-0.391-0.602-0.494-1.01c-0.103-0.407-0.154-0.887-0.154-1.44v-5.59h-1.339c-0.107,0-0.192-0.057-0.255-0.17
			c-0.064-0.113-0.096-0.298-0.096-0.552c0-0.134,0.009-0.248,0.027-0.34c0.017-0.092,0.041-0.168,0.069-0.228
			c0.028-0.061,0.066-0.103,0.111-0.128c0.046-0.024,0.097-0.037,0.154-0.037h1.329v-2.275c0-0.05,0.012-0.095,0.037-0.138
			c0.024-0.043,0.07-0.08,0.138-0.112c0.067-0.032,0.158-0.054,0.271-0.069c0.114-0.014,0.256-0.021,0.425-0.021
			c0.177,0,0.322,0.007,0.436,0.021c0.114,0.014,0.202,0.037,0.266,0.069c0.064,0.032,0.11,0.069,0.138,0.112
			c0.028,0.043,0.043,0.088,0.043,0.138v2.275h2.455c0.056,0,0.106,0.013,0.148,0.037c0.043,0.025,0.08,0.067,0.112,0.128
			c0.032,0.06,0.054,0.137,0.069,0.228c0.014,0.092,0.021,0.206,0.021,0.34c0,0.255-0.032,0.44-0.095,0.552
			c-0.064,0.114-0.149,0.17-0.255,0.17h-2.455v5.335c0,0.659,0.097,1.157,0.292,1.493c0.195,0.337,0.544,0.505,1.047,0.505
			c0.163,0,0.308-0.016,0.436-0.048c0.127-0.032,0.241-0.065,0.34-0.1c0.099-0.036,0.184-0.069,0.255-0.101
			c0.071-0.032,0.134-0.048,0.191-0.048c0.036,0,0.069,0.009,0.101,0.027c0.032,0.017,0.057,0.051,0.075,0.101
			c0.017,0.05,0.033,0.117,0.047,0.201C173.726,323.206,173.733,323.313,173.733,323.44z"/>
	</g>
	<g>
		<path fill="#FFFFFF" d="M188.64,324.141c0,0.057-0.014,0.105-0.042,0.144c-0.028,0.039-0.075,0.073-0.139,0.101
			c-0.063,0.028-0.152,0.05-0.265,0.064c-0.114,0.014-0.255,0.021-0.425,0.021c-0.177,0-0.323-0.007-0.436-0.021
			c-0.114-0.014-0.202-0.036-0.266-0.064c-0.063-0.028-0.11-0.062-0.138-0.101c-0.028-0.039-0.043-0.087-0.043-0.144v-5.601
			c0-0.545-0.043-0.985-0.127-1.318c-0.085-0.333-0.209-0.62-0.373-0.861c-0.163-0.241-0.373-0.425-0.632-0.552
			c-0.259-0.127-0.558-0.191-0.898-0.191c-0.44,0-0.878,0.155-1.318,0.467c-0.44,0.312-0.9,0.769-1.381,1.372v6.685
			c0,0.057-0.015,0.105-0.043,0.144c-0.028,0.039-0.075,0.073-0.138,0.101c-0.064,0.028-0.153,0.05-0.266,0.064
			c-0.114,0.014-0.259,0.021-0.436,0.021c-0.17,0-0.312-0.007-0.425-0.021c-0.114-0.014-0.204-0.036-0.271-0.064
			c-0.068-0.028-0.114-0.062-0.138-0.101c-0.025-0.039-0.038-0.087-0.038-0.144v-14.2c0-0.056,0.013-0.106,0.038-0.148
			c0.024-0.043,0.07-0.078,0.138-0.107c0.067-0.028,0.157-0.05,0.271-0.064c0.114-0.014,0.255-0.021,0.425-0.021
			c0.177,0,0.322,0.007,0.436,0.021c0.113,0.014,0.202,0.036,0.266,0.064c0.063,0.028,0.11,0.064,0.138,0.107
			c0.028,0.043,0.043,0.092,0.043,0.148v5.729c0.503-0.531,1.009-0.927,1.519-1.185c0.511-0.258,1.024-0.388,1.541-0.388
			c0.638,0,1.174,0.108,1.61,0.324c0.436,0.216,0.788,0.504,1.058,0.866c0.269,0.361,0.462,0.785,0.579,1.271
			c0.117,0.485,0.175,1.072,0.175,1.758V324.141z"/>
	</g>
	<g>
		<path fill="#FFFFFF" d="M198.149,311.345c0,0.411-0.077,0.691-0.234,0.84c-0.155,0.148-0.443,0.223-0.861,0.223
			c-0.411,0-0.692-0.073-0.844-0.218c-0.153-0.145-0.229-0.42-0.229-0.824c0-0.411,0.078-0.691,0.234-0.84
			c0.156-0.149,0.443-0.223,0.861-0.223c0.411,0,0.693,0.073,0.845,0.218C198.073,310.666,198.149,310.941,198.149,311.345z
			 M197.947,324.141c0,0.057-0.015,0.105-0.043,0.144c-0.028,0.039-0.075,0.073-0.138,0.101c-0.064,0.028-0.153,0.05-0.266,0.064
			c-0.114,0.014-0.259,0.021-0.436,0.021c-0.17,0-0.312-0.007-0.425-0.021c-0.114-0.014-0.204-0.036-0.271-0.064
			c-0.068-0.028-0.114-0.062-0.138-0.101c-0.025-0.039-0.038-0.087-0.038-0.144v-9.565c0-0.05,0.013-0.095,0.038-0.138
			c0.024-0.043,0.07-0.078,0.138-0.107c0.067-0.028,0.157-0.049,0.271-0.064c0.114-0.013,0.255-0.021,0.425-0.021
			c0.177,0,0.322,0.008,0.436,0.021c0.113,0.015,0.202,0.036,0.266,0.064c0.063,0.028,0.11,0.064,0.138,0.107
			c0.028,0.043,0.043,0.088,0.043,0.138V324.141z"/>
	</g>
	<g>
		<path fill="#FFFFFF" d="M213.779,324.141c0,0.057-0.014,0.105-0.042,0.144c-0.028,0.039-0.075,0.073-0.139,0.101
			c-0.063,0.028-0.152,0.05-0.265,0.064c-0.114,0.014-0.255,0.021-0.425,0.021c-0.177,0-0.323-0.007-0.436-0.021
			c-0.114-0.014-0.202-0.036-0.266-0.064c-0.063-0.028-0.11-0.062-0.138-0.101c-0.028-0.039-0.043-0.087-0.043-0.144v-5.601
			c0-0.545-0.043-0.985-0.127-1.318c-0.085-0.333-0.209-0.62-0.373-0.861c-0.163-0.241-0.373-0.425-0.632-0.552
			c-0.259-0.127-0.558-0.191-0.898-0.191c-0.44,0-0.878,0.155-1.318,0.467c-0.44,0.312-0.9,0.769-1.381,1.372v6.685
			c0,0.057-0.015,0.105-0.043,0.144c-0.028,0.039-0.075,0.073-0.138,0.101c-0.064,0.028-0.153,0.05-0.266,0.064
			c-0.114,0.014-0.259,0.021-0.436,0.021c-0.17,0-0.312-0.007-0.425-0.021c-0.114-0.014-0.204-0.036-0.271-0.064
			c-0.068-0.028-0.114-0.062-0.138-0.101c-0.025-0.039-0.038-0.087-0.038-0.144v-9.565c0-0.057,0.011-0.104,0.032-0.144
			c0.021-0.039,0.064-0.074,0.127-0.107c0.064-0.032,0.145-0.053,0.245-0.063c0.099-0.011,0.23-0.017,0.393-0.017
			c0.156,0,0.286,0.006,0.388,0.017c0.103,0.01,0.182,0.032,0.239,0.063c0.057,0.032,0.097,0.068,0.122,0.107
			c0.024,0.039,0.037,0.087,0.037,0.144v1.265c0.538-0.602,1.075-1.043,1.61-1.324c0.535-0.28,1.076-0.42,1.621-0.42
			c0.638,0,1.174,0.108,1.61,0.324c0.436,0.216,0.788,0.504,1.058,0.866c0.269,0.361,0.462,0.785,0.579,1.271
			c0.117,0.485,0.175,1.068,0.175,1.748V324.141z"/>
	</g>
	<g>
		<path fill="#FFFFFF" d="M229.324,315.012c0,0.248-0.034,0.427-0.101,0.537c-0.068,0.111-0.155,0.165-0.26,0.165h-1.371
			c0.248,0.255,0.421,0.537,0.52,0.845c0.099,0.308,0.149,0.628,0.149,0.961c0,0.553-0.088,1.042-0.266,1.467
			c-0.177,0.425-0.43,0.784-0.76,1.079c-0.329,0.294-0.721,0.519-1.174,0.675c-0.453,0.155-0.957,0.234-1.509,0.234
			c-0.39,0-0.76-0.051-1.11-0.154c-0.351-0.103-0.622-0.232-0.814-0.388c-0.127,0.128-0.232,0.273-0.313,0.436
			c-0.081,0.163-0.122,0.351-0.122,0.564c0,0.249,0.115,0.454,0.346,0.616c0.23,0.163,0.537,0.252,0.919,0.266l2.498,0.107
			c0.474,0.014,0.91,0.08,1.307,0.197c0.397,0.117,0.74,0.283,1.031,0.5s0.518,0.481,0.68,0.797c0.163,0.315,0.245,0.682,0.245,1.1
			c0,0.439-0.092,0.857-0.276,1.254c-0.185,0.396-0.466,0.746-0.845,1.047c-0.379,0.301-0.863,0.538-1.451,0.713
			c-0.588,0.173-1.282,0.26-2.084,0.26c-0.772,0-1.429-0.066-1.971-0.197c-0.542-0.131-0.987-0.31-1.334-0.537
			c-0.347-0.227-0.599-0.498-0.755-0.813c-0.156-0.316-0.234-0.657-0.234-1.026c0-0.234,0.028-0.46,0.084-0.68
			c0.057-0.22,0.144-0.429,0.26-0.627c0.118-0.198,0.262-0.388,0.436-0.568c0.173-0.181,0.373-0.36,0.6-0.537
			c-0.347-0.177-0.604-0.4-0.77-0.669c-0.167-0.269-0.249-0.56-0.249-0.871c0-0.432,0.088-0.818,0.265-1.159
			c0.178-0.34,0.397-0.645,0.659-0.914c-0.219-0.262-0.393-0.558-0.521-0.888c-0.127-0.329-0.191-0.728-0.191-1.196
			c0-0.545,0.092-1.035,0.276-1.466c0.184-0.432,0.44-0.797,0.766-1.095c0.326-0.298,0.717-0.526,1.174-0.686
			c0.457-0.159,0.955-0.239,1.493-0.239c0.29,0,0.561,0.016,0.813,0.047c0.252,0.032,0.487,0.077,0.707,0.133h2.891
			c0.12,0,0.211,0.058,0.271,0.175C229.294,314.592,229.324,314.771,229.324,315.012z M227.464,325.109
			c0-0.411-0.168-0.728-0.505-0.951c-0.336-0.223-0.792-0.343-1.365-0.357l-2.477-0.084c-0.227,0.177-0.413,0.345-0.558,0.504
			c-0.145,0.159-0.26,0.312-0.346,0.457s-0.144,0.289-0.175,0.431c-0.032,0.141-0.048,0.286-0.048,0.436
			c0,0.46,0.234,0.81,0.702,1.046c0.468,0.238,1.12,0.357,1.956,0.357c0.532,0,0.976-0.052,1.334-0.155
			c0.358-0.103,0.646-0.239,0.867-0.409c0.219-0.17,0.377-0.365,0.473-0.585C227.416,325.58,227.464,325.35,227.464,325.109z
			 M226.582,317.531c0-0.652-0.179-1.16-0.537-1.526c-0.358-0.365-0.866-0.547-1.525-0.547c-0.34,0-0.636,0.057-0.888,0.17
			c-0.252,0.114-0.461,0.27-0.627,0.468c-0.167,0.198-0.291,0.427-0.373,0.685c-0.081,0.259-0.122,0.53-0.122,0.814
			c0,0.631,0.179,1.126,0.537,1.488c0.358,0.361,0.859,0.542,1.504,0.542c0.347,0,0.648-0.055,0.904-0.165
			c0.255-0.11,0.466-0.262,0.632-0.457s0.29-0.42,0.372-0.675C226.541,318.073,226.582,317.807,226.582,317.531z"/>
	</g>
	<g>
		<g>
			<path fill="#FFFFFF" d="M17.571,39.33l1.006-0.838l20.687,38.37l-0.411,0.342L38.76,77.28l-0.089,0.075l-0.411,0.342
				L4.199,50.475l1.003-0.836l31.543,25.222L17.571,39.33z"/>
		</g>
		<g>
			<path fill="#FFFFFF" d="M38.266,78.218l-0.258-0.206L3.56,50.482l1.637-1.365l30.249,24.188L17.059,39.231l1.638-1.367
				l0.235,0.435L39.776,76.96L38.266,78.218z M4.838,50.468l33.416,26.708l0.496-0.414L18.456,39.119l-0.373,0.31l19.961,36.989
				L5.208,50.16L4.838,50.468z"/>
		</g>
	</g>
	<g>
		<g>
			<path fill="#FFFFFF" d="M69.219,58.653L51.952,19.059l0.571-0.248l0.57-0.25l17.269,39.591l-0.574,0.251L69.219,58.653z"/>
		</g>
		<g>
			<path fill="#FFFFFF" d="M69.01,59.186L51.42,18.85l1.881-0.821l17.592,40.332L69.01,59.186z M52.484,19.268L69.427,58.12
				l0.403-0.176l-16.945-38.85L52.484,19.268z"/>
		</g>
	</g>
	<g>
		<g>
			<path fill="#FFFFFF" d="M105.653,8.603c0.914,1.068,1.688,2.306,2.315,3.715c0.627,1.409,1.047,2.861,1.266,4.349
				c0.222,1.528,0.237,3.056,0.039,4.588c-0.196,1.53-0.584,2.917-1.163,4.162c-1.273,2.789-2.988,4.34-5.144,4.654l-8.464,1.237
				l2.672,18.282l-0.648,0.097l-0.587,0.084L89.795,7.738l-0.103-0.704l0.705-0.104l8.995-1.313c1.018-0.15,2.077,0.037,3.173,0.557
				C103.662,6.695,104.69,7.504,105.653,8.603z M106.955,24.917c0.512-1.158,0.864-2.445,1.058-3.859
				c0.193-1.411,0.187-2.826-0.02-4.241c-0.2-1.376-0.599-2.711-1.186-4.01c-0.591-1.298-1.297-2.429-2.118-3.393
				c-0.815-0.926-1.666-1.613-2.554-2.066c-0.886-0.451-1.741-0.619-2.563-0.498l-8.465,1.236l3.213,21.987l8.465-1.236
				c0.823-0.12,1.595-0.524,2.316-1.212C105.82,26.94,106.439,26.035,106.955,24.917z"/>
		</g>
		<g>
			<path fill="#FFFFFF" d="M95.596,50.231L89.233,6.692l10.1-1.476c1.089-0.162,2.24,0.039,3.405,0.592
				c1.139,0.542,2.222,1.393,3.218,2.528c0.944,1.102,1.743,2.385,2.38,3.817c0.636,1.431,1.073,2.93,1.297,4.454
				c0.227,1.565,0.24,3.146,0.039,4.699c-0.201,1.563-0.604,3.004-1.198,4.281c-1.326,2.906-3.161,4.55-5.452,4.884l-8.063,1.179
				l2.671,18.282L95.596,50.231z M90.15,7.374l0.045,0.305l6.084,41.636l0.436-0.064l-2.672-18.283l8.864-1.296
				c2.002-0.292,3.629-1.78,4.835-4.422c0.56-1.204,0.94-2.565,1.13-4.046c0.192-1.481,0.179-2.987-0.038-4.479
				c-0.213-1.451-0.629-2.879-1.235-4.243c-0.605-1.361-1.363-2.577-2.252-3.617c-0.919-1.048-1.915-1.833-2.954-2.327
				c-1.02-0.485-2.007-0.659-2.941-0.522L90.15,7.374z M93.979,30.532l-3.33-22.786l8.864-1.295c0.9-0.131,1.844,0.049,2.806,0.538
				c0.932,0.475,1.831,1.202,2.673,2.159c0.846,0.992,1.578,2.165,2.183,3.492c0.606,1.34,1.016,2.725,1.219,4.12
				c0.212,1.442,0.218,2.907,0.02,4.354c-0.198,1.445-0.564,2.78-1.089,3.967c-0.539,1.168-1.193,2.121-1.945,2.838
				c-0.779,0.743-1.633,1.187-2.537,1.319L93.979,30.532z M91.566,8.428l3.096,21.187l8.064-1.178
				c0.735-0.108,1.44-0.479,2.096-1.105c0.677-0.646,1.271-1.516,1.765-2.585c0.491-1.112,0.837-2.374,1.025-3.744
				c0.188-1.372,0.182-2.76-0.02-4.127c-0.191-1.32-0.579-2.633-1.154-3.903c-0.573-1.257-1.265-2.367-2.058-3.297
				c-0.77-0.876-1.589-1.539-2.429-1.968c-0.811-0.412-1.586-0.566-2.322-0.459L91.566,8.428z"/>
		</g>
	</g>
	<g>
		<g>
			<path fill="#FFFFFF" d="M156.523,48.35l-0.089,0.647l-0.081,0.588l-16.6-2.279l0.081-0.588l5.707-41.556l0.088-0.648l16.6,2.279
				L162.14,7.44l-0.081,0.588L146.696,5.92l-3.038,22.132l11.831,1.623l-0.081,0.588l-0.088,0.648l-11.833-1.624l-2.327,16.952
				L156.523,48.35z"/>
		</g>
		<g>
			<path fill="#FFFFFF" d="M156.699,50.04l-17.401-2.389l5.985-43.593l17.402,2.389l-0.281,2.036l-15.363-2.108l-2.928,21.331
				l11.831,1.623l-0.279,2.037l-11.832-1.625l-2.218,16.151l15.362,2.111L156.699,50.04z M140.209,46.961l15.799,2.169l0.06-0.434
				l-15.362-2.111l2.437-17.752l11.832,1.625l0.059-0.436l-11.831-1.623l3.147-22.933l15.364,2.108l0.06-0.435l-15.799-2.169
				L140.209,46.961z"/>
		</g>
	</g>
	<g>
		<g>
			<path fill="#FFFFFF" d="M199.972,64.051l-1.206-0.502l-0.348-20.099c-0.087,0.006-0.241-0.037-0.459-0.128l-7.87-3.279
				l-7.063,16.945l-0.604-0.252l-0.548-0.228l16.343-39.213l0.228-0.548l9.018,3.76c0.985,0.408,1.815,1.11,2.493,2.1
				s1.145,2.204,1.403,3.641c0.234,1.387,0.258,2.843,0.069,4.375c-0.19,1.531-0.582,3.009-1.175,4.435
				c-0.58,1.389-1.339,2.693-2.274,3.911c-0.938,1.219-2,2.223-3.189,3.017c-1.796,1.224-3.514,1.795-5.154,1.712L199.972,64.051z
				 M198.467,42.181c0.767,0.321,1.647,0.374,2.636,0.163c0.988-0.211,1.993-0.667,3.011-1.358c1.035-0.733,1.988-1.658,2.863-2.777
				c0.875-1.119,1.58-2.322,2.113-3.604c0.552-1.322,0.917-2.686,1.096-4.093c0.179-1.411,0.166-2.74-0.044-3.99
				c-0.225-1.211-0.609-2.244-1.156-3.093c-0.546-0.853-1.202-1.44-1.971-1.758l-7.898-3.292l-8.548,20.51L198.467,42.181z"/>
		</g>
		<g>
			<path fill="#FFFFFF" d="M200.386,64.661l-2.02-0.841l-0.347-20.044c-0.066-0.022-0.137-0.049-0.215-0.082l-7.497-3.123
				l-7.063,16.945l-1.896-0.791l0.155-0.373l16.726-40.133l9.392,3.915c1.05,0.434,1.949,1.19,2.671,2.245
				c0.706,1.034,1.2,2.311,1.467,3.797c0.241,1.425,0.264,2.936,0.072,4.496c-0.193,1.559-0.598,3.087-1.202,4.54
				c-0.588,1.41-1.371,2.756-2.327,4.002c-0.96,1.248-2.065,2.293-3.286,3.108c-1.706,1.162-3.378,1.763-4.967,1.786L200.386,64.661
				z M199.165,63.277l0.392,0.163l-0.331-20.168l0.432,0.022c1.541,0.083,3.19-0.473,4.907-1.642c1.149-0.768,2.19-1.752,3.096-2.93
				c0.913-1.19,1.661-2.475,2.221-3.82c0.576-1.385,0.962-2.842,1.147-4.329c0.183-1.482,0.161-2.914-0.066-4.257
				c-0.245-1.369-0.696-2.541-1.339-3.48c-0.631-0.923-1.41-1.581-2.313-1.955l-8.646-3.604l-16.26,39.015l0.405,0.169l7.063-16.945
				l8.243,3.434c0.216,0.09,0.29,0.097,0.294,0.097l0.422-0.027l-0.009,0.423L199.165,63.277z M199.973,42.875L199.973,42.875
				c-0.595,0-1.154-0.108-1.663-0.32l-8.27-3.448l8.859-21.256l8.271,3.448c0.84,0.348,1.565,0.992,2.155,1.913
				c0.57,0.884,0.978,1.973,1.213,3.237c0.216,1.286,0.232,2.668,0.048,4.115c-0.182,1.435-0.56,2.847-1.123,4.198
				c-0.545,1.309-1.275,2.553-2.169,3.697c-0.895,1.146-1.887,2.108-2.948,2.859c-1.068,0.725-2.129,1.203-3.16,1.423
				C200.766,42.829,200.358,42.875,199.973,42.875z M191.098,38.672l7.524,3.137c0.41,0.171,0.864,0.258,1.351,0.258l0,0
				c0.328,0,0.68-0.039,1.045-0.117c0.929-0.198,1.894-0.635,2.868-1.297c0.99-0.701,1.926-1.608,2.773-2.692
				c0.848-1.087,1.541-2.268,2.058-3.511c0.536-1.283,0.895-2.625,1.068-3.989c0.174-1.369,0.159-2.672-0.042-3.872
				c-0.215-1.153-0.585-2.145-1.097-2.941c-0.5-0.78-1.101-1.32-1.786-1.603l-7.525-3.137L191.098,38.672z"/>
		</g>
	</g>
	<g>
		<g>
			<path fill="#FFFFFF" d="M234.392,86.1l-1.06-0.769l4.058-8.729l-9.712-7.046l-7.137,6.493l-1.058-0.767l32.439-29.83l0.816,0.594
				L234.392,86.1z M237.967,75.408l12.119-26.515l-21.447,19.745L237.967,75.408z M252.162,45.627l0.048,0.034l0.097,0.072
				l0.048,0.034l0.048,0.034l0.097,0.072L252.162,45.627z"/>
		</g>
		<g>
			<path fill="#FFFFFF" d="M234.554,86.717l-1.728-1.255l4.058-8.728l-9.177-6.657l-7.137,6.493l-1.723-1.25l0.363-0.335
				l32.683-30.054l0.528,0.385v0l0.32,0.232l-0.001,0l0.504,0.367l-0.138,0.3L234.554,86.717z M233.839,85.199l0.391,0.284
				l18.004-39.305l-0.282-0.205L220.12,75.245l0.392,0.284l7.137-6.493l10.247,7.435L233.839,85.199z M238.13,76.025l-10.128-7.35
				l23.284-21.436L238.13,76.025z M229.275,68.601l8.529,6.19l11.081-24.244L229.275,68.601z"/>
		</g>
	</g>
	<g>
		<g>
			<path fill="#58395A" d="M104.579,93.652c5.103-6.734,13.254-10.54,21.897-10.458c0.388-0.001,0.775,0.018,1.182,0.057
				l0.023,11.748c-5.582-0.518-10.713,1.622-13.883,5.792c-2.957,3.895-3.529,8.744-1.563,13.315l-10.669,4.652
				C97.925,110.299,99.05,100.914,104.579,93.652z"/>
		</g>
	</g>
	<g>
		<g>
			<path fill="#58395A" d="M148.449,93.573c-5.129-6.715-13.295-10.493-21.938-10.379c-0.388,0.001-0.775,0.021-1.182,0.061
				l0.023,11.748c5.58-0.538,10.72,1.584,13.906,5.742c2.973,3.885,3.563,8.731,1.615,13.309l10.687,4.614
				C155.167,110.196,154.005,100.815,148.449,93.573z"/>
		</g>
	</g>
	<g>
		<g>
			<path fill="#58395A" d="M123.254,130.309l-56.911,43.45c0.551,0.62,1.006,1.315,1.372,2.059
				c4.786,0.061,9.571,0.147,14.354,0.306l48.042-36.678L123.254,130.309z"/>
		</g>
	</g>
	<g>
		<g>
			<polygon fill="#58395A" points="126.015,142.395 119.159,133.258 139.863,117.451 146.456,126.695 			"/>
		</g>
	</g>
	<g>
		<g>
			<polygon fill="#58395A" points="190.889,176.135 130.456,130.35 123.635,139.512 172.021,176.169 			"/>
		</g>
	</g>
	<g>
		<g>
			<polygon fill="#58395A" points="127.742,142.446 134.563,133.284 113.798,117.552 107.24,126.819 			"/>
		</g>
	</g>
	<g>
		<g>
			<path fill="#58395A" d="M107.78,127.172c0,0-5.031-3.362-6.984-10.549l10.779-4.214c0,0,1.612,4.955,3.698,6.36
				C117.36,120.174,107.78,127.172,107.78,127.172z"/>
		</g>
	</g>
	<g>
		<g>
			<path fill="#58395A" d="M140.873,114.053c0,0-0.821,2.541-1.908,4.071l6.831,9.151c0,0,3.959-3.733,5.887-8.99
				C153.61,113.027,140.873,114.053,140.873,114.053z"/>
		</g>
	</g>
	<g>
		<path stroke="#000000" stroke-miterlimit="10" d="M145.301,129.986"/>
	</g>
	<g>
		<g>
			<path fill="#58395A" d="M182.086,166.276c0,0,6.777-9.902,12.13-12.409l6.43,11.274c0,0-2.319-0.25-8.619,8.762L182.086,166.276z
				"/>
		</g>
	</g>
	<g>
		<g>
			<g>
				<path fill="#58395A" d="M216.67,212.139c4.357-1.318,8.45-3.731,11.918-7.14c8.141-7.997,11.511-20.031,8.793-31.404
					c-2.656-11.119-10.824-19.854-21.315-22.796c-9.802-2.748-19.973-0.034-27.21,7.263l9.273,9.197
					c3.909-3.941,9.162-5.358,14.412-3.884c6.02,1.688,10.559,6.644,12.139,13.256c1.659,6.944-0.35,14.244-5.243,19.052
					c-3.973,3.903-9.107,5.403-14.081,4.123l-3.26,12.647C206.962,213.707,211.971,213.56,216.67,212.139z"/>
			</g>
		</g>
		<g>
			<g>
				<path fill="#58395A" d="M190.54,208.098c-2.103-1.615-4.283-3.185-6.245-4.934c-0.719-0.647-1.383-2.015-1.174-2.829
					c0.209-0.814,1.426-1.75,2.362-1.965c2.578-0.575,5.217-0.873,7.851-1.26l0.185,0.535c0.509,1.233,1.916,1.899,3.27,1.49
					c1.208-0.365,1.998-1.514,1.935-2.7l0.015-0.027c0.018-0.165,0.043-0.309,0.135-0.382c1.584-1.229,4.74-0.569,5.782,1.299
					c0.735,1.301,1.413,2.643,1.862,4.053c0.384,1.271,1.126,1.843,2.182,2.251c-0.567,2.036-1.175,4.085-1.817,6.098
					c-1.543,0.012-3.37,1.565-4.86,2.652c-3.31,2.365-4.375,2.301-7.11-1.102c-0.006-0.021,0.002-0.069-0.004-0.09
					c0.382-0.616,0.493-1.377,0.273-2.106c-0.428-1.417-1.963-2.204-3.4-1.769c-0.271,0.082-0.508,0.199-0.712,0.352l-0.021,0.006
					c-0.027-0.015-0.048-0.008-0.075-0.023c-0.015,0.027-0.008,0.048-0.023,0.075l0.006,0.021L190.54,208.098z"/>
			</g>
		</g>
		<g>
			<g>
				<path fill="#58395A" d="M185.232,200.715c0,0-1.959-0.321-2.111-0.379s-2.297-0.234-3.532-1.534c0,0,2.102,0.853,2.567,0.772
					c0,0-1.697-1.001-1.653-1.679c0,0,1.694,1.347,2.825,1.566c0,0,1.48,0.44,2.128,0.56L185.232,200.715z"/>
			</g>
		</g>
	</g>
	<g>
		<g>
			<path fill="#58395A" d="M70.656,163.57c0,0-6.777-9.902-12.13-12.409l-6.062,11.601c0,0,1.238,0.774,7.736,8.665L70.656,163.57z"
				/>
		</g>
	</g>
	<g>
		<g>
			<g>
				<path fill="#58395A" d="M36.071,209.433c-4.357-1.318-8.45-3.731-11.918-7.14c-8.141-7.997-11.511-20.031-8.793-31.404
					c2.656-11.119,10.824-19.854,21.315-22.796c9.802-2.748,19.973-0.034,27.21,7.263l-9.273,9.197
					c-3.909-3.941-9.162-5.358-14.412-3.884c-6.02,1.688-10.559,6.644-12.139,13.256c-1.659,6.944,0.35,14.244,5.243,19.052
					c3.973,3.903,9.107,5.403,14.081,4.123l3.26,12.647C45.779,211.001,40.77,210.854,36.071,209.433z"/>
			</g>
		</g>
		<g>
			<g>
				<path fill="#58395A" d="M62.201,205.392c2.103-1.615,4.283-3.185,6.245-4.934c0.719-0.647,1.383-2.015,1.174-2.829
					c-0.209-0.814-1.426-1.75-2.362-1.965c-2.578-0.575-5.217-0.873-7.851-1.26l-0.185,0.535c-0.509,1.233-1.916,1.899-3.27,1.49
					c-1.208-0.365-1.998-1.514-1.935-2.7l-0.015-0.027c-0.018-0.165-0.043-0.309-0.135-0.382c-1.584-1.229-4.74-0.569-5.782,1.299
					c-0.735,1.301-1.413,2.643-1.862,4.053c-0.384,1.271-1.126,1.843-2.182,2.251c0.567,2.036,1.175,4.085,1.817,6.098
					c1.543,0.012,3.37,1.565,4.86,2.652c3.31,2.365,4.375,2.301,7.11-1.102c0.006-0.021-0.002-0.069,0.004-0.09
					c-0.382-0.616-0.493-1.377-0.273-2.106c0.428-1.417,1.963-2.204,3.4-1.769c0.271,0.082,0.508,0.199,0.712,0.352l0.021,0.006
					c0.027-0.015,0.048-0.008,0.075-0.023c0.015,0.027,0.008,0.048,0.023,0.075l-0.006,0.021L62.201,205.392z"/>
			</g>
		</g>
		<g>
			<g>
				<path fill="#58395A" d="M67.509,198.009c0,0,1.959-0.321,2.111-0.379c0.151-0.058,2.297-0.234,3.532-1.534
					c0,0-2.102,0.853-2.567,0.772c0,0,1.697-1.001,1.653-1.679c0,0-1.694,1.347-2.825,1.566c0,0-1.48,0.44-2.128,0.56
					L67.509,198.009z"/>
			</g>
		</g>
	</g>
	<g>
		<path fill="#CCE6DC" d="M140.515,258.674l-82.741-89.539l10.564-9.073l0.355,0.386l81.929,88.908L140.515,258.674z
			 M59.339,169.225l81.238,87.91l8.572-7.921L68.25,161.571L59.339,169.225z"/>
	</g>
	<g>
		<path fill="#58395A" d="M60.201,201.612c0.028,0.085,0.035,0.172,0.041,0.259c0.008,0.109,0.015,0.195-0.02,0.307"/>
	</g>
	<g>
		<path fill="#58395A" d="M66.772,210.85c-0.16-0.097-0.339-0.149-0.516-0.179"/>
	</g>
	<g>
		<polygon fill="#CCE6DC" points="149.917,249.245 140.546,257.905 58.498,168.641 68.294,160.816 		"/>
	</g>
	<g>
		<g>
			<path fill="#CCE6DC" d="M129.671,244.327l-10.323-9.229l69.194-77.387l10.323,9.229L129.671,244.327z M120.884,235.011l8.7,7.779
				l67.744-75.764l-8.7-7.779L120.884,235.011z"/>
		</g>
	</g>
	<g>
		<g>
			
				<rect x="152.727" y="149.657" transform="matrix(-0.7455 -0.6665 0.6665 -0.7455 143.7259 456.9222)" fill="#CCE6DC" width="12.759" height="102.723"/>
		</g>
	</g>
	<g>
		<g>
			<g>
				<path fill="#CCE6DC" d="M152.198,281.589c-4.949,7.76-13.494,12.638-22.934,13.353c-0.423,0.037-0.848,0.052-1.295,0.049
					l-1.107-12.708c6.14,0.04,11.542-2.752,14.618-7.558c2.869-4.49,3.046-9.789,0.48-14.551l11.215-6.026
					C157.925,262.959,157.562,273.218,152.198,281.589z"/>
			</g>
		</g>
		<g>
			<g>
				<path fill="#CCE6DC" d="M104.328,285.759c6.216,6.788,15.475,10.115,24.897,9.188c0.423-0.037,0.844-0.095,1.284-0.176
					l-1.107-12.708c-6.04,1.101-11.844-0.715-15.704-4.917c-3.602-3.926-4.693-9.115-2.988-14.249l-12.088-3.997
					C95.466,268.399,97.598,278.44,104.328,285.759z"/>
			</g>
		</g>
		<g>
			<g>
				<polygon fill="#CCE6DC" points="124.314,230.849 132.638,240.096 111.499,259.125 103.411,250.077 				"/>
			</g>
		</g>
		<g>
			<g>
				<path fill="#CCE6DC" d="M146.381,245.537c0,0,5.036,3.255,7.828,10.848l-11.375,5.562c0,0-2.294-4.527-4.701-5.852
					C135.728,254.769,146.381,245.537,146.381,245.537z"/>
			</g>
		</g>
	</g>
	<g>
		<g>
			<path fill="#CCE6DC" d="M110.71,262.896c0,0,0.662-2.826,1.708-4.582l-8.205-8.973c0,0-4.573,4.06-5.689,9.983
				C97.398,265.306,110.71,262.896,110.71,262.896z"/>
		</g>
	</g>
</g>
</svg>
